<?xml version="1.0" encoding="utf-8"?><!-- Uploaded to: SVG Repo, www.svgrepo.com, Generator: SVG Repo Mixer Tools -->
<svg width="800px" height="800px" viewBox="0 -9.47 97.156 97.156" xmlns="http://www.w3.org/2000/svg">
  <path id="Path_28" data-name="Path 28" d="M736.185,530.844h8.3a2,2,0,0,0,0-4h-8.3a2,2,0,0,0,0,4Zm52.4,31.693-7.346-29.879a7.961,7.961,0,0,0-5.392-5.508,2,2,0,0,0-1.155,3.831,4.027,4.027,0,0,1,2.662,2.634l7.348,29.876a2.168,2.168,0,0,1,.066.515,2.242,2.242,0,0,1-.1.51,1.063,1.063,0,0,1-.317.466.446.446,0,0,1-.056.041.744.744,0,0,1-.1.065,2.376,2.376,0,0,1-.9.216h-.012v0h-86.17c-.074-.005-.136-.016-.2-.024a2.687,2.687,0,0,1-.5-.1c-.016-.005-.025-.012-.041-.017a1.38,1.38,0,0,1-.2-.086.867.867,0,0,1-.115-.08.817.817,0,0,1-.067-.049.93.93,0,0,1-.121-.138l-.018-.021a1.172,1.172,0,0,1-.091-.173l-.012-.024a1.374,1.374,0,0,1-.053-.164c-.01-.035-.019-.069-.027-.106-.006-.02-.01-.043-.014-.063-.013-.081-.025-.165-.035-.256a2.23,2.23,0,0,1,.068-.513l7.348-29.878a3.972,3.972,0,0,1,2.221-2.468,2,2,0,0,0-1.627-3.655,7.905,7.905,0,0,0-4.477,5.168L691.8,562.535a6.152,6.152,0,0,0-.184,1.469c0,.009,0,.018,0,.027a1.949,1.949,0,0,0,0,.418l3.316,31.948a2,2,0,0,0,1.989,1.792h86.814a2,2,0,0,0,1.992-1.812l2.967-31.54c0-.037,0-.072,0-.108a5.308,5.308,0,0,0,.068-.723A6.144,6.144,0,0,0,788.586,562.537Zm-6.664,31.653H698.73l-2.589-24.948a5.473,5.473,0,0,0,.97.063h86.2c.027,0,.052-.007.078-.007a5.52,5.52,0,0,0,.886-.061Zm-62-53.788a20.445,20.445,0,0,0,8.164-1.535,8.934,8.934,0,0,0,2.863-1.927,4.643,4.643,0,0,0,1.363-3.182v-2.5l0-4.6c0-.013,0-.025,0-.039a4.635,4.635,0,0,0-1.363-3.182c-2.347-2.356-6.351-3.409-11.027-3.465a20.486,20.486,0,0,0-8.166,1.537,8.916,8.916,0,0,0-2.861,1.928,4.629,4.629,0,0,0-1.366,3.182c0,.014,0,.026,0,.039l0,4.859v2.238a4.652,4.652,0,0,0,1.364,3.182C711.238,539.295,715.242,540.348,719.92,540.4Zm-8.393-13.78c0-.016-.011-.126.272-.432.806-.983,4.189-2.27,8.121-2.213a16.63,16.63,0,0,1,6.531,1.185,5.009,5.009,0,0,1,1.59,1.028c.283.306.268.416.271.432v0h-.005c0,.014.005.136-.284.446-.83.982-4.193,2.252-8.1,2.2-.326,0-.651-.007-.969-.021-.062,0-.123-.01-.183-.013-.256-.013-.51-.029-.756-.051-.061-.006-.118-.015-.176-.021-.246-.024-.49-.051-.727-.084-.076-.011-.148-.024-.224-.036-.213-.033-.426-.065-.631-.1-.1-.019-.186-.041-.281-.061-.176-.036-.354-.071-.524-.112-.146-.036-.285-.076-.426-.116-.1-.028-.214-.054-.316-.085-.213-.063-.412-.13-.6-.2-.024-.009-.051-.016-.075-.024-.215-.079-.42-.162-.611-.248a5.15,5.15,0,0,1-1.6-1.023c-.291-.31-.283-.432-.285-.446h0Zm0,5.007c.141.067.291.126.436.188.111.049.221.1.334.146.367.147.746.281,1.14.4.112.035.231.065.346.1.319.091.645.173.979.248.132.029.261.06.4.086.438.089.883.167,1.344.229.08.011.162.019.244.029q.609.077,1.242.125l.406.029c.5.031,1.008.055,1.526.061.777,0,1.535-.037,2.269-.1.342-.031.661-.092.991-.137.38-.05.775-.089,1.14-.158s.674-.162,1.008-.244.656-.142.961-.233c.281-.085.529-.2.8-.292.322-.117.66-.22.961-.353l.031-.015.006,0,.019-.009.207-.1v2.131c0,.014.012.125-.269.433-.809.981-4.189,2.27-8.121,2.212a16.61,16.61,0,0,1-6.531-1.186,5.069,5.069,0,0,1-1.59-1.026c-.283-.31-.268-.419-.272-.433Zm48.434,8.773a20.452,20.452,0,0,0,8.164-1.535,8.934,8.934,0,0,0,2.863-1.927,4.648,4.648,0,0,0,1.364-3.182v-2.5l0-4.6h0c0-.013,0-.025,0-.039a4.631,4.631,0,0,0-1.364-3.182c-2.345-2.356-6.349-3.409-11.027-3.465a20.48,20.48,0,0,0-8.164,1.537,8.906,8.906,0,0,0-2.861,1.928,4.62,4.62,0,0,0-1.366,3.182c0,.014,0,.026,0,.039l0,4.859v2.238a4.635,4.635,0,0,0,1.364,3.182C751.277,539.295,755.283,540.348,759.961,540.4Zm-8.393-13.78c0-.016-.013-.126.27-.432.808-.983,4.189-2.27,8.121-2.213a16.623,16.623,0,0,1,6.531,1.185,5,5,0,0,1,1.592,1.028c.283.306.268.416.27.432v0h-.006c0,.014.006.136-.284.446-.826.978-4.168,2.243-8.058,2.2h-.043c-.092,0-.18-.005-.27-.006-.234,0-.468-.005-.7-.015-.137-.007-.269-.018-.4-.027-.18-.012-.36-.021-.535-.037-.119-.011-.231-.028-.348-.04-.186-.021-.373-.039-.553-.065-.107-.014-.207-.034-.31-.05-.184-.029-.371-.056-.547-.089-.106-.02-.2-.044-.3-.066-.168-.035-.34-.068-.5-.107-.138-.034-.267-.072-.4-.108-.113-.031-.233-.06-.342-.093-.2-.059-.387-.124-.57-.189-.035-.012-.074-.023-.11-.036-.214-.079-.42-.161-.611-.247a5.175,5.175,0,0,1-1.6-1.023c-.287-.31-.281-.432-.281-.446h-.006Zm0,5.006c.135.064.28.121.418.182.119.052.237.107.36.156.363.145.736.278,1.125.4.121.037.244.069.367.1q.468.132.957.242c.135.03.269.062.408.089.436.088.879.166,1.336.228.084.011.172.019.256.03q.6.075,1.228.124l.414.029c.5.031,1,.054,1.516.061h.008c.777,0,1.535-.038,2.269-.1.256-.023.495-.071.745-.1.468-.058.941-.109,1.388-.193.307-.057.586-.143.881-.213.365-.087.742-.161,1.086-.265.266-.08.5-.186.754-.277.338-.12.689-.228,1-.367l.033-.015,0,0,.014-.006.215-.1v2.131c0,.014.011.123-.272.433-.807.981-4.189,2.27-8.119,2.212a16.613,16.613,0,0,1-6.533-1.186,5.094,5.094,0,0,1-1.59-1.026c-.281-.31-.266-.419-.27-.433Zm-49.531,16.614c0,.018,0,.034,0,.052l0,4v4.84a5.275,5.275,0,0,0,1.564,3.629c2.737,2.765,7.653,4.107,13.393,4.165a25.108,25.108,0,0,0,9.977-1.871,10.7,10.7,0,0,0,3.414-2.294,5.3,5.3,0,0,0,1.566-3.629v-4.149l0-4.694c0-.018,0-.034,0-.052a5.3,5.3,0,0,0-1.566-3.629c-2.737-2.767-7.653-4.108-13.391-4.165a25.12,25.12,0,0,0-9.98,1.87,10.689,10.689,0,0,0-3.414,2.295A5.3,5.3,0,0,0,702.037,548.242Zm25.914,8.9c0,.174-.058.433-.471.88-1.2,1.393-5.49,2.969-10.484,2.914a21.258,21.258,0,0,1-8.348-1.523,6.861,6.861,0,0,1-2.14-1.391c-.41-.447-.467-.706-.469-.88v-3.46c.063.034.135.061.2.1q.531.282,1.108.528c.17.072.347.139.521.207q.477.183.979.345c.179.057.355.116.541.17.472.136.959.261,1.463.371.082.017.166.035.25.051.507.1,1.029.192,1.562.268.186.027.375.049.565.072q.647.08,1.316.132c.185.016.369.031.557.043.621.039,1.252.067,1.9.073h0c.072,0,.143,0,.215-.005.4,0,.8-.009,1.2-.027.2-.009.4-.027.6-.041.26-.017.521-.029.775-.052.219-.02.432-.05.647-.074s.459-.047.683-.078.442-.071.662-.108.418-.063.621-.1c.225-.042.442-.094.661-.142.189-.041.382-.078.568-.122.23-.056.451-.121.676-.183.164-.045.334-.086.494-.135.232-.07.453-.149.678-.226.142-.049.291-.092.431-.144.242-.089.471-.187.7-.283.106-.044.219-.084.323-.13l.011-.005.036-.015c.337-.152.664-.312.978-.482ZM706.51,547.36c1.2-1.391,5.49-2.967,10.486-2.913a21.209,21.209,0,0,1,8.346,1.524,6.806,6.806,0,0,1,2.138,1.389c.413.447.469.708.471.882v.012h0a1.02,1.02,0,0,1-.236.584l-.008.009a3.142,3.142,0,0,1-.246.294c-1.225,1.391-5.5,2.947-10.463,2.892-.416,0-.828-.009-1.232-.026l-.153-.011c-.351-.017-.7-.04-1.041-.071-.074-.007-.142-.018-.215-.025-.316-.032-.628-.065-.933-.108-.07-.01-.135-.022-.2-.033-.3-.045-.6-.091-.891-.146-.066-.012-.127-.028-.193-.041-.283-.056-.567-.115-.836-.18-.076-.019-.147-.04-.221-.06-.252-.063-.5-.129-.74-.2-.088-.026-.166-.057-.254-.084-.211-.067-.426-.135-.623-.208-.121-.045-.231-.093-.346-.14-.15-.06-.306-.119-.447-.181s-.238-.117-.358-.174-.236-.112-.341-.168c-.149-.081-.28-.163-.412-.245-.057-.035-.123-.071-.178-.106a4.888,4.888,0,0,1-.848-.685,1.384,1.384,0,0,1-.49-.887h0l0-.012C706.041,548.068,706.1,547.809,706.51,547.36Zm69.5-2.747c-2.737-2.767-7.654-4.108-13.393-4.165a25.1,25.1,0,0,0-9.976,1.87,10.644,10.644,0,0,0-3.414,2.295,5.3,5.3,0,0,0-1.565,3.629c0,.03,0,.057,0,.086l0,3.346v5.463a5.274,5.274,0,0,0,1.567,3.629c2.734,2.765,7.652,4.107,13.388,4.165a25.114,25.114,0,0,0,9.981-1.871,10.7,10.7,0,0,0,3.412-2.294,5.284,5.284,0,0,0,1.564-3.629v-6.393l0-2.45c0-.018,0-.034,0-.052A5.292,5.292,0,0,0,776.006,544.613Zm-2.436,12.524c0,.174-.058.433-.468.88-1.2,1.393-5.493,2.969-10.489,2.914a21.237,21.237,0,0,1-8.344-1.523,6.79,6.79,0,0,1-2.14-1.391c-.412-.447-.469-.706-.471-.88v-3.46c.037.02.08.036.117.056.383.207.789.4,1.209.578.155.064.313.124.469.185.34.131.688.254,1.047.369.16.051.32.1.484.152.508.147,1.028.283,1.569.4l.078.016c.537.112,1.094.2,1.66.284.178.025.359.046.539.068q.658.081,1.336.135c.184.015.365.03.551.042.621.039,1.252.067,1.9.073q.716,0,1.412-.032c.149-.007.293-.02.44-.029.314-.02.629-.036.937-.064.164-.015.323-.038.485-.055.283-.031.568-.059.845-.1.178-.025.35-.058.528-.086.252-.04.508-.077.756-.123.181-.034.355-.077.533-.114.232-.05.469-.1.7-.151.182-.045.357-.1.535-.145.213-.058.43-.112.637-.174.174-.052.338-.112.506-.168.2-.067.408-.131.6-.2.162-.06.315-.127.471-.19.184-.073.373-.143.551-.221l.019-.01.024-.01q.507-.228.978-.481Zm0-8.883h0a.814.814,0,0,1-.088.341l0,0a1.659,1.659,0,0,1-.144.239c-.008.011-.022.024-.029.035a2.71,2.71,0,0,1-.225.27,4.4,4.4,0,0,1-.992.787l-.041.022c-.129.078-.268.156-.414.234l-.119.058c-.127.065-.256.13-.395.194l-.156.066c-.135.06-.27.119-.414.176l-.176.066c-.146.056-.291.112-.447.166-.051.018-.106.034-.157.052-.167.056-.337.112-.513.166-.035.011-.072.02-.108.03a22.56,22.56,0,0,1-6.535.875c-.416,0-.826-.009-1.232-.026l-.11-.008c-.367-.018-.73-.042-1.086-.074l-.039-.005a21.815,21.815,0,0,1-4.2-.79l-.008,0c-.3-.091-.591-.187-.869-.289-.06-.023-.113-.048-.174-.071-.213-.081-.421-.163-.617-.251-.1-.046-.193-.095-.291-.142-.137-.065-.277-.13-.4-.2-.164-.09-.313-.181-.457-.272-.041-.026-.09-.051-.129-.077a4.846,4.846,0,0,1-.85-.687,1.381,1.381,0,0,1-.492-.887h0l0-.012c0-.174.059-.433.473-.882,1.2-1.391,5.488-2.967,10.482-2.913a21.213,21.213,0,0,1,8.348,1.524,6.824,6.824,0,0,1,2.139,1.389c.412.447.468.708.47.882Zm-30.623,37.151H706.49a2,2,0,1,0,0,4h36.457a2,2,0,0,0,0-4Zm27.2,0h-7.81a2,2,0,1,0,0,4h7.81a2,2,0,0,0,0-4Zm-14.83,0h-3.256a2,2,0,0,0,0,4h3.256a2,2,0,0,0,0-4Z" transform="translate(-691.613 -519.975)" fill="#3b3859"/>
</svg>